# xmcd
#
# Track frame offsets:
# 150
# 16812
# 33542
# 50210
# 68125
# 84175
# 97490
# 113965
# 130415
# 143497
# 159107
# 176630
#
# Disc length: 2550 seconds
#
#
# Revision: 0
# Processed by: cddbd v1.5.1PL2 Copyright (c) Steve Scherf et al.
# Submitted via: FreeRIP 2.945 
#
DISCID=a009f40c
DTITLE=Rio Negro and Solimões - 
DYEAR=1996
DGENRE=Sertanejo
TTITLE0=Morredo de Amor
TTITLE1=Sonhei
TTITLE2=Sei Que Vou Chorar
TTITLE3=Quero
TTITLE4=Alegria Geral
TTITLE5=Só Voce Não Vê
TTITLE6=Vem Tirar a Solidão
TTITLE7=Como Te Esquecer
TTITLE8=Chove
TTITLE9=De Cara Cheia
TTITLE10=Basta Apenas Acreditar
TTITLE11=Chora Viola
EXTD=
EXTT0=
EXTT1=
EXTT2=
EXTT3=
EXTT4=
EXTT5=
EXTT6=
EXTT7=
EXTT8=
EXTT9=
EXTT10=
EXTT11=
PLAYORDER=
